<svg width="46" height="40" viewBox="0 0 46 40" fill="none" xmlns="http://www.w3.org/2000/svg">
<path d="M15.0529 10.8144C15.0529 10.8144 15.0197 10.7812 14.9866 10.7745C14.9601 10.7612 14.9137 10.7546 14.8607 10.7479C14.8143 10.7479 14.7415 10.7347 14.662 10.7347C14.5891 10.7347 14.5228 10.7347 14.4698 10.7479C14.4234 10.7479 14.3771 10.7612 14.3439 10.7745C14.3174 10.7745 14.2909 10.8011 14.2711 10.8144C14.2578 10.8343 14.2512 10.8476 14.2512 10.8675V14.634C14.2512 14.634 14.2512 14.6738 14.2711 14.6937C14.2909 14.7137 14.3108 14.7203 14.3439 14.7269C14.3704 14.7402 14.4168 14.7469 14.4698 14.7535C14.5228 14.7535 14.5891 14.7668 14.662 14.7668C14.7415 14.7668 14.8143 14.7668 14.8607 14.7535C14.9137 14.7402 14.9535 14.7336 14.9866 14.7269C15.0131 14.7269 15.0396 14.707 15.0529 14.6937C15.0661 14.6738 15.0794 14.6539 15.0794 14.634V10.8675C15.0794 10.8675 15.0661 10.8343 15.0529 10.8144ZM19.207 10.8277C19.207 10.8277 19.1738 10.8011 19.1473 10.7812C19.1208 10.7679 19.0877 10.7612 19.0413 10.7546C18.995 10.7546 18.9287 10.7546 18.8625 10.7546C18.7896 10.7546 18.7299 10.7546 18.6836 10.7546C18.6306 10.7679 18.5974 10.7745 18.5709 10.7812C18.5444 10.8011 18.5179 10.8077 18.5047 10.8277C18.4914 10.8409 18.4848 10.8542 18.4848 10.8808V13.1925C18.4848 13.3519 18.4981 13.5047 18.5047 13.6442C18.4782 13.5645 18.4318 13.4781 18.392 13.3984C18.3589 13.3187 18.3192 13.2323 18.2728 13.146C18.233 13.0663 18.1867 12.9733 18.1469 12.8936C18.1005 12.8072 18.0542 12.7142 18.0144 12.6345L17.2392 11.1731C17.1995 11.1 17.1597 11.0269 17.1266 10.9738C17.0868 10.914 17.0537 10.8742 17.0007 10.8476C16.961 10.821 16.9146 10.8011 16.8616 10.7812C16.8086 10.7612 16.7423 10.7612 16.6628 10.7612H16.2322C16.1527 10.7612 16.0798 10.7812 16.0268 10.8343C15.9672 10.8808 15.9473 10.9539 15.9473 11.0535V14.634C15.9473 14.634 15.9473 14.6738 15.9605 14.6871C15.9738 14.707 15.987 14.7137 16.0202 14.7269C16.0467 14.7402 16.0864 14.7469 16.1262 14.7535C16.1725 14.7535 16.2388 14.7668 16.3051 14.7668C16.3779 14.7668 16.4376 14.7668 16.4839 14.7535C16.5303 14.7402 16.5634 14.7336 16.5966 14.7269C16.6231 14.7137 16.6429 14.7004 16.6562 14.6871C16.6695 14.6738 16.6761 14.6539 16.6761 14.634V12.5415C16.6761 12.3887 16.6761 12.2359 16.6761 12.0898C16.6761 11.9436 16.6628 11.7975 16.6496 11.6514H16.6628C16.7026 11.7776 16.7622 11.8971 16.8218 12.03C16.8815 12.1562 16.9411 12.2758 17.0007 12.3887L17.9879 14.2487C18.0475 14.355 18.0873 14.4347 18.127 14.5011C18.1668 14.5675 18.2065 14.6207 18.2529 14.6539C18.2927 14.6937 18.3457 14.7203 18.3987 14.7269C18.4517 14.7469 18.5179 14.7535 18.5842 14.7535H18.9221C18.9618 14.7535 18.995 14.7535 19.0413 14.7336C19.0811 14.7336 19.1142 14.707 19.1407 14.6804C19.1672 14.6539 19.1871 14.6207 19.207 14.5941C19.2268 14.5542 19.2335 14.5144 19.2335 14.4679V10.8874C19.2335 10.8874 19.2335 10.8476 19.2202 10.8343L19.207 10.8277ZM26.157 14.2819C26.157 14.242 26.1437 14.2088 26.1305 14.1822C26.1172 14.1557 26.104 14.1424 26.0974 14.1291C26.0775 14.1158 26.0642 14.1092 26.0444 14.1092H24.6067V12.9866H25.8058C25.8058 12.9866 25.8456 12.9866 25.8589 12.9666C25.8787 12.9533 25.8854 12.9401 25.8986 12.9135C25.9119 12.8869 25.9185 12.8603 25.9251 12.8205C25.9251 12.7873 25.9384 12.7408 25.9384 12.6743C25.9384 12.6212 25.9384 12.5681 25.9251 12.5282C25.9119 12.4883 25.9119 12.4551 25.8986 12.4352C25.8854 12.4086 25.8721 12.3953 25.8589 12.3821C25.8456 12.3688 25.8324 12.3621 25.8058 12.3621H24.6067V11.3923H26.0311C26.0311 11.3923 26.0642 11.3923 26.0775 11.3657C26.0974 11.3657 26.104 11.3392 26.1172 11.3126C26.1305 11.286 26.1371 11.2594 26.1437 11.2196C26.1504 11.1797 26.1437 11.1332 26.1437 11.0734C26.1437 11.0137 26.1437 10.9605 26.1437 10.9207C26.1437 10.8808 26.1305 10.8476 26.1172 10.821C26.104 10.7944 26.0907 10.7745 26.0775 10.7679C26.0642 10.7546 26.051 10.7546 26.0311 10.7546H24.0435C23.9772 10.7546 23.9176 10.7745 23.8712 10.8144C23.8249 10.8476 23.7984 10.9207 23.7984 11.007V14.4812C23.7984 14.5742 23.8249 14.6406 23.8712 14.6804C23.9176 14.7203 23.9772 14.7402 24.0435 14.7402H26.0444C26.0444 14.7402 26.0775 14.7402 26.0974 14.7203C26.1106 14.707 26.1239 14.6937 26.1305 14.6672C26.1437 14.6406 26.157 14.6074 26.157 14.5742C26.1702 14.5343 26.1702 14.4812 26.1702 14.4214C26.1702 14.3616 26.1702 14.3151 26.157 14.2752V14.2819ZM29.1053 13.1393C29.0523 13.0198 28.986 12.9135 28.9132 12.8271C28.8336 12.7474 28.7343 12.6677 28.6349 12.6013C28.5355 12.5348 28.4295 12.4751 28.3301 12.4286C28.2175 12.3821 28.1115 12.3356 28.0121 12.2957C27.9061 12.2492 27.82 12.2027 27.7338 12.1496C27.6543 12.0964 27.5881 12.0433 27.5417 11.9769C27.4887 11.9104 27.4688 11.8374 27.4688 11.751C27.4688 11.6912 27.4821 11.6314 27.4953 11.5783C27.5152 11.5251 27.5483 11.4787 27.5947 11.4454C27.6411 11.4056 27.6875 11.3724 27.7603 11.3524C27.8266 11.3325 27.8995 11.3259 27.9856 11.3259C28.1049 11.3259 28.2042 11.3392 28.3036 11.3657C28.3897 11.3923 28.4759 11.4255 28.5488 11.4587C28.6216 11.4853 28.6746 11.5185 28.7276 11.5517C28.774 11.5783 28.8071 11.5916 28.8336 11.5916C28.8601 11.5916 28.8734 11.5916 28.8867 11.5716C28.9065 11.5584 28.9132 11.5384 28.9132 11.5119C28.9132 11.4853 28.933 11.4521 28.933 11.4122C28.933 11.3724 28.933 11.3192 28.933 11.2594C28.933 11.1997 28.933 11.1598 28.933 11.1266C28.933 11.0934 28.933 11.0535 28.9198 11.0402C28.9198 11.0137 28.9198 11.0004 28.9065 10.9804C28.8933 10.9672 28.88 10.9539 28.8601 10.9273C28.8403 10.9007 28.7939 10.8874 28.7343 10.8542C28.668 10.8277 28.6018 10.8011 28.5156 10.7745C28.4361 10.7479 28.3367 10.728 28.244 10.7147C28.1512 10.7014 28.0651 10.6882 27.9657 10.6882C27.7868 10.6882 27.608 10.7147 27.4489 10.7612C27.2833 10.8011 27.1442 10.8742 27.0183 10.9738C26.899 11.0668 26.8063 11.1864 26.74 11.3325C26.6671 11.4787 26.6274 11.6447 26.6274 11.8374C26.6274 12.0034 26.6539 12.1496 26.7003 12.2691C26.7467 12.3887 26.8129 12.495 26.8924 12.5747C26.9653 12.6677 27.0647 12.7474 27.1641 12.8006C27.2634 12.867 27.3628 12.9201 27.4754 12.9666C27.5815 13.0198 27.6875 13.0663 27.7868 13.1128C27.8796 13.1526 27.9723 13.1991 28.0585 13.2456C28.1314 13.2988 28.1976 13.3585 28.244 13.425C28.297 13.4914 28.3169 13.5645 28.3169 13.6508C28.3169 13.7305 28.3036 13.8036 28.2771 13.87C28.2506 13.9298 28.2042 13.9896 28.1512 14.0295C28.0982 14.0693 28.032 14.1025 27.9525 14.1291C27.8796 14.1557 27.7868 14.1623 27.6875 14.1623C27.5417 14.1623 27.4092 14.1424 27.2966 14.1158C27.1839 14.0826 27.0845 14.0427 27.005 14.0029C26.9255 13.963 26.8527 13.9232 26.8063 13.8833C26.7533 13.8568 26.7069 13.8302 26.6804 13.8302C26.6539 13.8302 26.6473 13.8435 26.6274 13.8567C26.6075 13.87 26.6009 13.8833 26.5876 13.9099C26.5876 13.9365 26.5678 13.9697 26.5678 14.0162C26.5678 14.056 26.5678 14.1092 26.5678 14.1822C26.5678 14.2686 26.5678 14.3483 26.5876 14.3948C26.6009 14.448 26.6141 14.4812 26.6406 14.5144C26.6671 14.541 26.7135 14.5742 26.7732 14.6074C26.8328 14.6339 26.9057 14.6738 26.9984 14.707C27.0845 14.7336 27.1906 14.7602 27.3098 14.7801C27.4291 14.8067 27.5549 14.8133 27.6875 14.8133C27.8928 14.8133 28.0784 14.7867 28.2572 14.7336C28.4361 14.6871 28.5951 14.6074 28.7276 14.5011C28.8601 14.3948 28.9662 14.2686 29.0457 14.1092C29.1252 13.9431 29.1649 13.7638 29.1649 13.5512C29.1649 13.3918 29.1384 13.2589 29.092 13.1393H29.1053ZM32.3716 10.9406C32.3583 10.8941 32.3517 10.8609 32.3451 10.8343C32.3318 10.8077 32.3186 10.7878 32.3053 10.7745C32.2855 10.7612 32.2788 10.7612 32.2523 10.7612H29.4498C29.4498 10.7612 29.4167 10.7612 29.3968 10.7745C29.3769 10.7878 29.3703 10.8011 29.3637 10.8343C29.3504 10.8609 29.3372 10.8941 29.3372 10.9406C29.3372 10.9804 29.3239 11.0336 29.3239 11.0934C29.3239 11.1532 29.3239 11.2063 29.3372 11.2462C29.3372 11.286 29.3504 11.3192 29.3637 11.3458C29.3769 11.3724 29.3836 11.3923 29.3968 11.4056C29.4167 11.4189 29.4233 11.4255 29.4498 11.4255H30.437V14.6406C30.437 14.6406 30.4502 14.6804 30.4635 14.7004C30.4767 14.7203 30.4966 14.7269 30.5297 14.7336C30.5629 14.7469 30.6026 14.7535 30.6556 14.7602C30.7086 14.7602 30.7749 14.7734 30.8478 14.7734C30.9273 14.7734 30.9869 14.7734 31.0399 14.7602C31.0929 14.7469 31.1327 14.7402 31.1658 14.7336C31.1989 14.7336 31.2188 14.7137 31.2387 14.7004C31.2519 14.6804 31.2585 14.6605 31.2585 14.6406V11.4255H32.2523C32.2523 11.4255 32.2855 11.4255 32.3053 11.4056C32.3252 11.3923 32.3318 11.379 32.3451 11.3458C32.3451 11.3192 32.3583 11.286 32.3716 11.2462C32.3716 11.2063 32.3716 11.1532 32.3716 11.0934C32.3716 11.0336 32.3716 10.9804 32.3716 10.9406ZM19.6707 16.3611C19.6244 16.2282 19.5515 16.1153 19.4654 16.009C19.3859 15.9094 19.2732 15.8296 19.1473 15.7632C19.0215 15.6968 18.9022 15.6569 18.7763 15.6304C18.6504 15.6104 18.5511 15.5971 18.4649 15.5905C18.3788 15.5772 18.286 15.5772 18.1867 15.5772H17.2326C17.1465 15.5772 17.0802 15.6038 17.0338 15.6503C16.9808 15.6968 16.9543 15.7765 16.9543 15.8695V19.5363C16.9543 19.5363 16.9543 19.5695 16.9742 19.5894C16.9875 19.6094 17.0073 19.616 17.0471 19.6293C17.0736 19.6426 17.12 19.6492 17.173 19.6559C17.226 19.6559 17.2989 19.6691 17.3717 19.6691C17.4512 19.6691 17.5241 19.6691 17.5705 19.6559C17.6235 19.6559 17.6699 19.6426 17.6964 19.6293C17.7229 19.616 17.7494 19.6027 17.7626 19.5894C17.7825 19.5695 17.7891 19.5562 17.7891 19.5363V18.2343H18.1204C18.392 18.2343 18.6239 18.2077 18.8227 18.1413C19.0148 18.0749 19.1871 17.9885 19.3196 17.869C19.4521 17.7428 19.5581 17.5966 19.631 17.4173C19.7039 17.2445 19.737 17.0386 19.737 16.8128C19.737 16.6467 19.7105 16.5006 19.6707 16.3677V16.3611ZM18.836 17.1582C18.8094 17.2445 18.7631 17.3309 18.7101 17.384C18.6504 17.4505 18.5842 17.497 18.4848 17.5302C18.4053 17.5634 18.286 17.59 18.1535 17.59H17.7825V16.2016H18.1337C18.2198 16.2016 18.3059 16.2016 18.3788 16.2216C18.4583 16.2348 18.5378 16.2614 18.6107 16.3013C18.6836 16.3478 18.7432 16.4208 18.7962 16.5072C18.8426 16.6002 18.8691 16.7198 18.8691 16.8659C18.8691 16.9656 18.8558 17.0652 18.8293 17.1515L18.836 17.1582ZM26.8328 19.4433C26.8328 19.4433 26.8063 19.3569 26.7665 19.2706L26.4286 18.4668C26.3889 18.3738 26.3491 18.2875 26.3028 18.2144C26.263 18.1347 26.2232 18.0682 26.1769 18.0085C26.1239 17.942 26.0775 17.8889 26.0179 17.849C25.9715 17.8092 25.9119 17.776 25.8522 17.7494C25.9781 17.7095 26.0841 17.6498 26.1835 17.59C26.2895 17.5169 26.369 17.4505 26.4353 17.3575C26.5081 17.2711 26.5545 17.1715 26.5876 17.0585C26.6208 16.9456 26.6406 16.8261 26.6406 16.6866C26.6406 16.5205 26.6141 16.381 26.5678 16.2548C26.5214 16.1286 26.4419 16.0223 26.3558 15.9293C26.2696 15.8363 26.157 15.7632 26.0245 15.7034C25.8986 15.6503 25.7462 15.6104 25.5872 15.5839C25.5276 15.5706 25.4613 15.5706 25.4017 15.5639C25.3288 15.5639 25.2427 15.5639 25.1367 15.5639H24.0899C24.017 15.5639 23.964 15.5839 23.911 15.6237C23.8646 15.6636 23.8381 15.7366 23.8381 15.8296V19.523C23.8381 19.523 23.8381 19.5562 23.858 19.5761C23.8712 19.5961 23.8911 19.6027 23.9242 19.616C23.9574 19.6293 23.9971 19.6359 24.0501 19.6426C24.1031 19.6426 24.1694 19.6559 24.2489 19.6559C24.3218 19.6559 24.3946 19.6559 24.4476 19.6426C24.5007 19.6426 24.5404 19.6293 24.5735 19.616C24.6 19.6027 24.6199 19.5894 24.6398 19.5761C24.6597 19.5562 24.6597 19.5429 24.6597 19.523V17.9752H24.918C25.0108 17.9752 25.0837 17.9885 25.1499 18.0151C25.2162 18.0417 25.2758 18.0815 25.3288 18.1347C25.3818 18.1878 25.4216 18.2542 25.4613 18.334C25.5011 18.4137 25.5475 18.5067 25.5872 18.6129L25.9516 19.5164C25.9516 19.5164 25.9781 19.5695 25.9781 19.5828C25.998 19.6027 26.0112 19.616 26.0444 19.6293C26.0775 19.6426 26.1172 19.6492 26.1702 19.6492C26.2232 19.6492 26.2895 19.6625 26.3823 19.6625C26.4883 19.6625 26.5678 19.6625 26.6274 19.6492C26.687 19.6492 26.7334 19.6492 26.7599 19.6359C26.793 19.616 26.8129 19.6094 26.8262 19.5894C26.8262 19.5761 26.8262 19.5629 26.8262 19.5363C26.8262 19.5097 26.8262 19.4831 26.8129 19.4433H26.8328ZM25.7396 17.0121C25.7131 17.0851 25.6667 17.1449 25.6071 17.198C25.5475 17.2445 25.4812 17.2844 25.3885 17.3176C25.3023 17.3442 25.1963 17.3575 25.0771 17.3575H24.653V16.2083H25.0307C25.1234 16.2083 25.1963 16.2083 25.2559 16.2083C25.3089 16.2083 25.3553 16.2216 25.3951 16.2348C25.5342 16.2747 25.627 16.3411 25.6932 16.4275C25.7528 16.5205 25.7793 16.6401 25.7793 16.7729C25.7793 16.8526 25.7661 16.939 25.7396 17.0054V17.0121ZM30.4039 19.4499C30.4039 19.4499 30.3641 19.3636 30.3244 19.2772L29.1119 17.4372L30.225 15.9758C30.278 15.8961 30.3045 15.8363 30.331 15.7964C30.3509 15.7632 30.3575 15.7234 30.3575 15.6901C30.3575 15.6636 30.3442 15.6503 30.331 15.6304C30.3177 15.6104 30.2979 15.6038 30.2647 15.5905C30.2316 15.5772 30.1918 15.5639 30.1388 15.5639C30.0792 15.5639 30.013 15.5639 29.9335 15.5639C29.8473 15.5639 29.7811 15.5639 29.7281 15.5639C29.6751 15.5639 29.6287 15.5772 29.6022 15.5839C29.5691 15.5971 29.5359 15.6104 29.5227 15.6304C29.5094 15.6503 29.4829 15.6702 29.4697 15.6968L28.2771 17.4305V15.6968C28.2771 15.6968 28.2771 15.6569 28.2572 15.6304C28.244 15.6171 28.2241 15.6038 28.1844 15.5905C28.1579 15.5772 28.1115 15.5706 28.0585 15.5639C28.0055 15.5639 27.9392 15.5639 27.8597 15.5639C27.7802 15.5639 27.714 15.5639 27.661 15.5639C27.608 15.5639 27.5616 15.5772 27.5351 15.5905C27.5086 15.6038 27.4821 15.6171 27.4688 15.6304C27.4489 15.6569 27.4423 15.6702 27.4423 15.6968V19.5296C27.4423 19.5296 27.4423 19.5761 27.4688 19.5894C27.4821 19.616 27.5019 19.616 27.5351 19.6359C27.5616 19.6492 27.608 19.6559 27.661 19.6625C27.714 19.6625 27.7802 19.6758 27.8597 19.6758C27.9392 19.6758 28.0055 19.6758 28.0585 19.6625C28.1115 19.6625 28.1512 19.6492 28.1844 19.6359C28.2175 19.616 28.244 19.6094 28.2572 19.5894C28.2705 19.5761 28.2771 19.5562 28.2771 19.5296V17.6033L29.5028 19.5296C29.5028 19.5296 29.5359 19.5894 29.5691 19.6027C29.5956 19.6293 29.6353 19.6426 29.6949 19.6492C29.7546 19.6625 29.8473 19.6691 29.9798 19.6691C30.0726 19.6691 30.1455 19.6691 30.1985 19.6559C30.2581 19.6559 30.3045 19.6426 30.331 19.6293C30.3575 19.6094 30.384 19.6027 30.3972 19.5828C30.4105 19.5629 30.4237 19.5496 30.4237 19.523C30.4237 19.5031 30.4105 19.4831 30.4039 19.4499ZM23.6924 7.83179C23.6327 7.80522 23.5731 7.77865 23.5135 7.75207C23.5002 7.772 23.4936 7.79193 23.487 7.82514L21.559 13.963L20.5718 10.8277C20.5718 10.8277 20.5718 10.8144 20.5585 10.8144C20.5585 10.7944 20.532 10.7812 20.5055 10.7679C20.479 10.7546 20.4327 10.7479 20.3797 10.7413C20.3267 10.7413 20.2538 10.7413 20.1544 10.7413C20.0484 10.7413 19.9623 10.7413 19.9026 10.7546C19.8364 10.7546 19.79 10.7745 19.7701 10.7944C19.7436 10.8144 19.737 10.8476 19.7436 10.8874C19.7436 10.9273 19.7701 10.9871 19.7834 11.0602L20.9759 14.5941C20.9759 14.5941 20.9892 14.6472 21.0024 14.6672C21.0157 14.6871 21.029 14.7004 21.0422 14.7137C21.0621 14.7137 21.082 14.7336 21.1085 14.7402C21.135 14.7535 21.1681 14.7602 21.2078 14.7668C21.2476 14.7668 21.3006 14.7668 21.3536 14.7668C21.4132 14.7668 21.4861 14.7668 21.5656 14.7668C21.6716 14.7668 21.7511 14.7668 21.8174 14.7535H21.8306C21.8836 14.7535 21.93 14.7402 21.9631 14.7336C21.9963 14.7203 22.0228 14.707 22.0426 14.6804C22.0559 14.6605 22.0691 14.634 22.0758 14.6007L24.2025 8.11078L23.7056 7.83179H23.6924ZM23.2021 19.3304L21.9499 15.7234C21.9366 15.6835 21.9234 15.6503 21.9101 15.6304C21.8836 15.6038 21.8637 15.5905 21.824 15.5772C21.7842 15.5639 21.7379 15.5573 21.6716 15.5506H21.1681C21.0952 15.5506 21.0488 15.5639 21.0091 15.5772C20.9826 15.5905 20.9494 15.6038 20.9362 15.6237C20.9163 15.6503 20.9031 15.6769 20.8898 15.7167L18.942 21.2568L19.6045 21.7284C19.6045 21.7284 19.6509 21.6022 19.6575 21.569L20.6182 18.7126H22.1089L22.3805 19.5363C22.3805 19.5363 22.407 19.5828 22.4137 19.5961C22.4269 19.616 22.4468 19.6226 22.4799 19.6426C22.513 19.6426 22.5594 19.6559 22.619 19.6559C22.6787 19.6559 22.7582 19.6559 22.8642 19.6559C22.9702 19.6559 23.0431 19.6559 23.1027 19.6559C23.1689 19.6559 23.2021 19.6359 23.2286 19.616C23.2551 19.5894 23.2551 19.5562 23.2551 19.5164C23.2551 19.4765 23.2352 19.4167 23.2087 19.337L23.2021 19.3304ZM20.8236 18.0749L21.3735 16.4341L21.9101 18.0749H20.8236ZM4.60464 13.332C4.60464 13.332 4.60464 13.3187 4.60464 13.312C4.8829 12.6079 5.40631 12.0167 6.06222 11.6846L10.9716 8.97434L15.351 6.56302C15.404 5.3009 15.934 3.94579 17.2989 2.57738L2.03399 10.9804C1.21907 11.4056 0.563157 12.123 0.231888 12.9932C0.231888 13.0065 0.231888 13.0198 0.218637 13.0198C0.218637 13.0463 0.198761 13.0796 0.192136 13.1061C0.0662538 13.4781 0 13.87 0 14.2752C0 15.6769 0.814921 16.9257 1.97436 17.5435L2.04724 17.6232L3.08743 18.2077C5.85021 19.2905 9.41466 19.2972 12.6743 18.9318L11.4818 18.2742C9.86519 18.2476 8.2751 18.0417 6.93015 17.5103L6.09535 17.032L6.02909 16.9656C5.09492 16.4673 4.43238 15.4643 4.43238 14.3217C4.43238 13.9896 4.49201 13.684 4.59139 13.3851C4.59139 13.3585 4.61126 13.3386 4.61789 13.312L4.60464 13.332ZM44.0256 10.8542L43.9461 10.7745L42.9059 10.19C40.1498 9.10055 36.592 9.09391 33.3257 9.4659L34.5182 10.1235C36.1414 10.1435 37.7249 10.3494 39.0699 10.8808L39.9047 11.3591L39.9709 11.4255C40.9051 11.9304 41.5676 12.9334 41.5676 14.076C41.5676 14.4015 41.5146 14.7137 41.4086 15.0126C41.4086 15.0325 41.3954 15.0591 41.3821 15.0857C41.3821 15.0857 41.3821 15.0989 41.3821 15.1122C41.1038 15.8164 40.5804 16.4076 39.9245 16.7397L30.6424 21.8546C30.5827 23.1167 30.0527 24.4718 28.6879 25.8402L43.9594 17.4305C44.7743 17.012 45.4302 16.288 45.7615 15.4178C45.7615 15.4045 45.7615 15.3979 45.7615 15.3912C45.7814 15.3647 45.788 15.3248 45.7946 15.2982C45.9205 14.9262 45.9867 14.541 45.9867 14.1357C45.9867 12.7275 45.1784 11.4853 44.019 10.8609L44.0256 10.8542Z" fill="#B4B4B4"/>
<path d="M40.5539 9.15369C40.5539 9.15369 40.5009 9.14041 40.4811 9.13376L40.2624 9.01419C38.2417 8.22371 35.7969 8.0045 33.3588 8.08421L24.5205 3.1553C24.0965 2.92945 23.6062 2.79659 23.0961 2.79659C23.0364 2.79659 22.9768 2.79659 22.9172 2.79659C22.5859 2.82316 22.2414 2.91616 21.9366 3.03573C21.8571 3.06894 21.7776 3.1088 21.7047 3.14201C21.5722 3.22173 21.4463 3.30144 21.3205 3.37451L16.6098 5.93861C16.908 4.18492 18.1999 2.25853 21.3668 0.431778C21.8041 0.205925 22.3408 0.0464992 22.8642 0C22.9371 0 23.0099 0 23.0894 0C23.7189 0 24.3284 0.166068 24.8518 0.445063L40.5606 9.13376L40.5539 9.15369Z" fill="#B4B4B4"/>
<path d="M29.3836 22.4591C29.0854 24.2194 27.7935 26.1392 24.6199 27.9659C24.1893 28.1851 23.6526 28.3512 23.1292 28.3977C23.0563 28.3977 22.9768 28.3977 22.9039 28.3977C22.2811 28.3977 21.665 28.2316 21.1482 27.9526L5.44606 19.2573C5.44606 19.2573 5.49244 19.2706 5.51894 19.2772L5.73758 19.4034C7.75169 20.1873 10.1965 20.3998 12.6412 20.3201L21.4795 25.249C21.8969 25.4749 22.3938 25.6078 22.9039 25.6078C22.9636 25.6078 23.0298 25.6078 23.0828 25.6078C23.4141 25.5812 23.7586 25.4948 24.0567 25.3686C24.1363 25.342 24.2224 25.2955 24.2886 25.2623C24.4211 25.1893 24.5537 25.1095 24.6795 25.0298L29.3836 22.4657V22.4591Z" fill="#B4B4B4"/>
<path d="M7.94383 35.5719C7.94383 35.5719 7.92395 35.6316 7.9107 35.6516C7.89745 35.6715 7.87757 35.6848 7.84445 35.6981C7.81795 35.7114 7.77819 35.718 7.73182 35.718C7.68544 35.718 7.63244 35.718 7.55956 35.718C7.48005 35.718 7.42042 35.718 7.37405 35.718C7.32767 35.718 7.28792 35.7047 7.26141 35.6981C7.23491 35.6914 7.21504 35.6715 7.20179 35.6516C7.18853 35.6316 7.18191 35.6051 7.17528 35.5719L6.75126 33.8913L6.35374 35.5719C6.35374 35.5719 6.34049 35.6316 6.32724 35.6516C6.31398 35.6715 6.29411 35.6848 6.26761 35.6981C6.24111 35.7114 6.20798 35.718 6.1616 35.718C6.11522 35.718 6.0556 35.718 5.98272 35.718C5.90321 35.718 5.84358 35.718 5.79058 35.718C5.73758 35.718 5.70445 35.7047 5.67795 35.6981C5.65145 35.6914 5.63157 35.6715 5.61832 35.6516C5.60507 35.6316 5.59844 35.6051 5.58519 35.5719L4.98228 33.2602C4.96903 33.2137 4.96241 33.1738 4.96241 33.1473C4.96241 33.1207 4.96241 33.1008 4.98891 33.0808C5.00879 33.0676 5.03529 33.0543 5.07504 33.0543C5.11479 33.0543 5.16779 33.0543 5.24067 33.0543C5.30693 33.0543 5.3533 33.0543 5.39306 33.0543C5.43281 33.0543 5.45931 33.0609 5.47919 33.0676C5.49906 33.0742 5.51231 33.0875 5.51894 33.1008C5.51894 33.1141 5.53219 33.134 5.53219 33.1605L5.99597 35.1932L6.47962 33.1738C6.47962 33.1738 6.49287 33.1273 6.4995 33.1074C6.50612 33.0875 6.526 33.0808 6.54587 33.0676C6.56575 33.0543 6.59888 33.0543 6.632 33.0476C6.67176 33.0476 6.71813 33.0476 6.77776 33.0476C6.84401 33.0476 6.89702 33.0476 6.93677 33.0476C6.97652 33.0476 7.00302 33.0543 7.02953 33.0676C7.0494 33.0742 7.06265 33.0875 7.0759 33.1074C7.08253 33.1273 7.09578 33.1473 7.09578 33.1738L7.59268 35.1932L8.05646 33.1672C8.05646 33.1672 8.06308 33.1273 8.07633 33.114C8.07633 33.1008 8.09621 33.0875 8.11609 33.0742C8.13596 33.0675 8.16247 33.0609 8.19559 33.0543C8.22872 33.0543 8.28172 33.0543 8.34798 33.0543C8.4076 33.0543 8.45398 33.0543 8.48711 33.0543C8.52024 33.0543 8.54674 33.0676 8.55999 33.0808C8.57324 33.0941 8.57986 33.1207 8.57986 33.1473C8.57986 33.1738 8.57324 33.2137 8.55999 33.2668L7.95045 35.5719H7.94383Z" fill="#B4B4B4"/>
<path d="M10.9252 35.5054C10.9451 35.5519 10.9517 35.5918 10.9584 35.625C10.9584 35.6516 10.9584 35.6781 10.9385 35.6914C10.9252 35.7047 10.8987 35.718 10.859 35.718C10.8192 35.718 10.7662 35.718 10.7 35.718C10.6337 35.718 10.5741 35.718 10.5344 35.718C10.4946 35.718 10.4681 35.718 10.4482 35.7047C10.4283 35.7047 10.4151 35.6914 10.4085 35.6781C10.4018 35.6649 10.3952 35.6516 10.3886 35.6316L10.2097 35.1002H9.2159L9.05027 35.6184C9.05027 35.6184 9.03702 35.6516 9.03039 35.6649C9.02377 35.6781 9.00389 35.6848 8.99064 35.6981C8.97076 35.7047 8.94426 35.7114 8.90451 35.7114C8.87138 35.7114 8.81838 35.7114 8.76538 35.7114C8.70575 35.7114 8.65274 35.7114 8.61962 35.7114C8.58649 35.7114 8.55999 35.6981 8.54674 35.6848C8.53349 35.6715 8.52686 35.6449 8.53349 35.6184C8.54011 35.5918 8.54674 35.5519 8.56661 35.5054L9.38154 33.1539C9.38154 33.1539 9.40141 33.1141 9.40804 33.1008C9.41466 33.0875 9.43454 33.0742 9.46104 33.0676C9.48754 33.0609 9.52067 33.0543 9.56042 33.0543C9.60017 33.0543 9.6598 33.0543 9.72605 33.0543C9.80556 33.0543 9.87181 33.0543 9.91819 33.0543C9.96457 33.0543 10.0043 33.0609 10.0308 33.0676C10.0573 33.0742 10.0772 33.0875 10.0905 33.1008C10.1037 33.1141 10.1103 33.134 10.117 33.1605L10.9319 35.5121L10.9252 35.5054ZM9.7128 33.5658L9.34178 34.695H10.0905L9.7128 33.5658Z" fill="#B4B4B4"/>
<path d="M12.787 35.4855C12.787 35.5254 12.787 35.5586 12.787 35.5918C12.787 35.6184 12.7804 35.6449 12.7671 35.6582C12.7605 35.6781 12.7539 35.6914 12.7406 35.6981C12.7274 35.7047 12.7207 35.7114 12.7075 35.7114H11.495C11.4487 35.7114 11.4155 35.6981 11.3824 35.6715C11.3493 35.6449 11.336 35.5984 11.336 35.5387V34.7216L11.1373 34.8478C11.1373 34.8478 11.0843 34.8611 11.071 34.8345C11.0578 34.8079 11.0511 34.7548 11.0511 34.6684C11.0511 34.6286 11.0511 34.5954 11.0511 34.5688C11.0511 34.5422 11.0511 34.5223 11.0644 34.5024C11.0644 34.4825 11.0776 34.4692 11.0909 34.4559C11.0975 34.4426 11.1108 34.436 11.1306 34.4227L11.3426 34.2898V33.1207C11.3426 33.1207 11.3426 33.0941 11.3559 33.0875C11.3625 33.0742 11.3758 33.0676 11.4023 33.0609C11.4222 33.0609 11.4487 33.0476 11.4818 33.0476C11.5149 33.0476 11.5613 33.0476 11.6143 33.0476C11.6673 33.0476 11.707 33.0476 11.7468 33.0476C11.7799 33.0476 11.8064 33.0543 11.8263 33.0609C11.8462 33.0676 11.8594 33.0742 11.8727 33.0875C11.8793 33.1008 11.8859 33.1074 11.8859 33.1207V33.951L12.2768 33.7053C12.2768 33.7053 12.3298 33.692 12.3431 33.7185C12.3563 33.7451 12.363 33.8049 12.363 33.8846C12.363 33.9245 12.363 33.9577 12.363 33.9842C12.363 34.0108 12.363 34.0307 12.3497 34.0507C12.3497 34.0706 12.3365 34.0839 12.3232 34.0972C12.31 34.1105 12.2967 34.1237 12.2835 34.1304L11.8859 34.3828V35.2663H12.7141C12.7141 35.2663 12.7406 35.2663 12.7472 35.2796C12.7605 35.2862 12.7671 35.2995 12.7737 35.3194C12.7804 35.3394 12.787 35.3593 12.7936 35.3859C12.7936 35.4124 12.7936 35.4457 12.7936 35.4921L12.787 35.4855Z" fill="#B4B4B4"/>
<path d="M15.0264 34.9142C15.0264 35.0072 15.0131 35.0936 14.9866 35.1733C14.9601 35.253 14.927 35.3194 14.8806 35.3792C14.8342 35.439 14.7812 35.4855 14.715 35.532C14.6487 35.5719 14.5825 35.6117 14.503 35.6383C14.4234 35.6649 14.3439 35.6848 14.2578 35.6981C14.1717 35.7114 14.0723 35.718 13.9663 35.718H13.264C13.2176 35.718 13.1845 35.7047 13.1514 35.6781C13.1182 35.6516 13.105 35.6051 13.105 35.5453V33.2336C13.105 33.1738 13.1182 33.1273 13.1514 33.1008C13.1845 33.0742 13.2176 33.0609 13.264 33.0609H13.9265C14.0922 33.0609 14.2247 33.0742 14.3373 33.1008C14.4499 33.1273 14.5427 33.1672 14.6222 33.227C14.7017 33.2868 14.7613 33.3532 14.8011 33.4395C14.8408 33.5259 14.8607 33.6255 14.8607 33.7385C14.8607 33.8049 14.8541 33.8647 14.8342 33.9178C14.821 33.9776 14.7945 34.0241 14.7613 34.0706C14.7282 34.1171 14.6885 34.157 14.6487 34.1902C14.6023 34.2234 14.5493 34.2566 14.4897 34.2765C14.5626 34.2898 14.6355 34.3164 14.6951 34.3496C14.7613 34.3828 14.8143 34.4293 14.8607 34.4824C14.9071 34.5356 14.9469 34.602 14.9734 34.6751C14.9999 34.7482 15.0131 34.8279 15.0131 34.9209L15.0264 34.9142ZM14.3307 33.7982C14.3307 33.7451 14.3241 33.6986 14.3042 33.6521C14.2909 33.6122 14.2644 33.5724 14.2313 33.5458C14.1982 33.5193 14.1584 33.4927 14.1054 33.4794C14.0524 33.4661 13.9928 33.4595 13.9067 33.4595H13.635V34.1503H13.9332C14.0127 34.1503 14.0723 34.1437 14.1187 34.1237C14.1651 34.1038 14.2048 34.0772 14.2313 34.0507C14.2644 34.0175 14.2843 33.9776 14.2976 33.9377C14.3108 33.8912 14.3174 33.8514 14.3174 33.7982H14.3307ZM14.4698 34.9342C14.4698 34.8744 14.4566 34.8212 14.4367 34.7681C14.4168 34.7216 14.3837 34.6817 14.3439 34.6485C14.3042 34.6153 14.2512 34.5887 14.1916 34.5754C14.1319 34.5555 14.0524 34.5489 13.953 34.5489H13.635V35.3061H14.0259C14.0988 35.3061 14.1651 35.2995 14.2181 35.2796C14.2711 35.2663 14.3108 35.2397 14.3506 35.2131C14.3903 35.1866 14.4168 35.1467 14.4367 35.1002C14.4566 35.0537 14.4698 35.0006 14.4698 34.9408V34.9342Z" fill="#B4B4B4"/>
<path d="M17.4181 35.6383C17.4181 35.6383 17.4181 35.6649 17.4115 35.6781C17.4115 35.6914 17.3916 35.6981 17.3717 35.7047C17.3519 35.7047 17.3187 35.718 17.279 35.718C17.2392 35.718 17.1862 35.718 17.12 35.718C17.0603 35.718 17.014 35.718 16.9808 35.718C16.9477 35.718 16.9212 35.7114 16.9013 35.7047C16.8815 35.6981 16.8682 35.6848 16.8616 35.6781C16.855 35.6649 16.8483 35.6516 16.8417 35.6383L16.6032 35.0471C16.5767 34.9807 16.5502 34.9209 16.5171 34.8677C16.4839 34.8146 16.4574 34.7747 16.4243 34.7349C16.3912 34.7017 16.3514 34.6751 16.3117 34.6552C16.2653 34.6352 16.2189 34.6286 16.1593 34.6286H15.9937V35.6383C15.9937 35.6383 15.9937 35.6649 15.9804 35.6781C15.9672 35.6914 15.9539 35.6981 15.934 35.7047C15.9142 35.7114 15.8877 35.718 15.8545 35.718C15.8214 35.718 15.775 35.718 15.722 35.718C15.669 35.718 15.6293 35.718 15.5895 35.718C15.5564 35.718 15.5299 35.7114 15.51 35.7047C15.4901 35.7047 15.4769 35.6914 15.4703 35.6781C15.4636 35.6649 15.457 35.6516 15.457 35.6383V33.227C15.457 33.1672 15.4703 33.1207 15.5034 33.0941C15.5365 33.0675 15.5696 33.0543 15.616 33.0543H16.2984C16.3647 33.0543 16.4243 33.0543 16.4707 33.0543C16.5171 33.0543 16.5568 33.0543 16.5966 33.0676C16.7026 33.0808 16.7953 33.1074 16.8815 33.1473C16.9676 33.1871 17.0405 33.2336 17.1001 33.2934C17.1597 33.3532 17.2061 33.4263 17.2392 33.506C17.2724 33.5857 17.2856 33.6787 17.2856 33.785C17.2856 33.8713 17.2724 33.951 17.2525 34.0307C17.2326 34.1038 17.1995 34.1702 17.1531 34.2234C17.1067 34.2832 17.0537 34.3297 16.9941 34.3762C16.9278 34.416 16.855 34.4559 16.7755 34.4758C16.8152 34.4957 16.855 34.5157 16.8881 34.5422C16.9212 34.5688 16.9543 34.602 16.9875 34.6419C17.0206 34.6817 17.0471 34.7282 17.0736 34.7747C17.1001 34.8279 17.1266 34.881 17.1531 34.9408L17.3784 35.4656C17.3982 35.5187 17.4115 35.5586 17.4181 35.5785C17.4181 35.6051 17.4247 35.6184 17.4247 35.6316L17.4181 35.6383ZM16.7291 33.8381C16.7291 33.7518 16.7092 33.6787 16.6695 33.6189C16.6297 33.5591 16.5634 33.5193 16.4773 33.4927C16.4508 33.486 16.4177 33.4794 16.3846 33.4728C16.3514 33.4728 16.3051 33.4728 16.2388 33.4728H16.0003V34.2234H16.2719C16.3514 34.2234 16.4177 34.2167 16.4707 34.1968C16.5303 34.1769 16.5767 34.1503 16.6164 34.1171C16.6562 34.0839 16.6827 34.044 16.7026 33.9975C16.7225 33.951 16.7291 33.8979 16.7291 33.8447V33.8381Z" fill="#B4B4B4"/>
<path d="M19.4389 35.4988C19.4389 35.5386 19.4389 35.5719 19.4389 35.5984C19.4389 35.625 19.4322 35.6516 19.4256 35.6649C19.4256 35.6848 19.4124 35.6914 19.3991 35.6981C19.3859 35.7047 19.3792 35.7114 19.366 35.7114H17.8024C17.7494 35.7114 17.703 35.6981 17.6765 35.6649C17.65 35.6316 17.6301 35.5851 17.6301 35.5254V35.4324C17.6301 35.4324 17.6301 35.3792 17.6301 35.3593C17.6301 35.3394 17.6368 35.3128 17.65 35.2929C17.6566 35.2729 17.6699 35.2464 17.6831 35.2198C17.6964 35.1932 17.7163 35.16 17.7428 35.1202L18.7697 33.486H17.7494C17.7494 33.486 17.7163 33.486 17.7096 33.4728C17.6964 33.4661 17.6898 33.4528 17.6831 33.4395C17.6765 33.4196 17.6699 33.3997 17.6699 33.3731C17.6699 33.3465 17.6699 33.3133 17.6699 33.2735C17.6699 33.2336 17.6699 33.2004 17.6699 33.1672C17.6699 33.1406 17.6765 33.1141 17.6831 33.1008C17.6898 33.0808 17.703 33.0742 17.7096 33.0676C17.7229 33.0609 17.7361 33.0543 17.7494 33.0543H19.2136C19.2666 33.0543 19.313 33.0675 19.3395 33.0941C19.366 33.1207 19.3792 33.1605 19.3792 33.2137V33.3133C19.3792 33.3532 19.3792 33.3798 19.3792 33.4063C19.3792 33.4329 19.3726 33.4595 19.3594 33.486C19.3461 33.5126 19.3395 33.5392 19.3262 33.5658C19.313 33.5923 19.2931 33.6255 19.2666 33.6588L18.2595 35.2663H19.366C19.366 35.2663 19.4124 35.2796 19.4256 35.3128C19.4389 35.346 19.4455 35.3992 19.4455 35.4855L19.4389 35.4988Z" fill="#B4B4B4"/>
<path d="M20.8567 34.7017V35.6316C20.8567 35.6316 20.8567 35.6582 20.8434 35.6715C20.8368 35.6848 20.8169 35.6914 20.7971 35.6981C20.7772 35.7047 20.7507 35.7114 20.7176 35.7114C20.6844 35.7114 20.6381 35.7114 20.585 35.7114C20.532 35.7114 20.4857 35.7114 20.4525 35.7114C20.4194 35.7114 20.3929 35.7047 20.373 35.6981C20.3532 35.6981 20.3399 35.6848 20.3267 35.6715C20.3134 35.6582 20.3134 35.6449 20.3134 35.6316V34.7017L19.5912 33.2535C19.5647 33.2004 19.5515 33.1672 19.5382 33.134C19.5316 33.1074 19.5382 33.0875 19.5515 33.0676C19.5647 33.0476 19.5979 33.041 19.6376 33.041C19.6774 33.041 19.737 33.041 19.8165 33.041C19.8761 33.041 19.9291 33.041 19.9689 33.041C20.0086 33.041 20.0351 33.0476 20.055 33.0543C20.0749 33.0609 20.0948 33.0742 20.1014 33.0808C20.108 33.0875 20.1213 33.1074 20.1279 33.1273L20.4194 33.7783C20.4459 33.8381 20.479 33.9045 20.5055 33.9776C20.532 34.044 20.5585 34.1171 20.5917 34.1968C20.6182 34.1237 20.6447 34.0507 20.6712 33.9842C20.6977 33.9178 20.7242 33.8448 20.7507 33.785L21.0422 33.134C21.0422 33.134 21.0555 33.0941 21.0687 33.0808C21.082 33.0676 21.0952 33.0543 21.1151 33.0476C21.135 33.041 21.1615 33.0343 21.2012 33.0343C21.241 33.0343 21.2807 33.0343 21.3403 33.0343C21.4198 33.0343 21.4795 33.0343 21.5192 33.0343C21.559 33.0343 21.5921 33.0476 21.6054 33.0609C21.6186 33.0742 21.6252 33.0941 21.6186 33.1273C21.612 33.1539 21.5921 33.1938 21.5722 33.2469L20.8501 34.695L20.8567 34.7017Z" fill="#B4B4B4"/>
<path d="M23.6327 35.3061C23.6327 35.3394 23.6327 35.3659 23.6327 35.3925C23.6327 35.4191 23.6327 35.439 23.6261 35.4523C23.6261 35.4722 23.6195 35.4855 23.6128 35.4988C23.6062 35.5121 23.593 35.5254 23.5797 35.5386C23.5665 35.5519 23.5333 35.5719 23.4936 35.5984C23.4472 35.625 23.4008 35.6449 23.3346 35.6715C23.275 35.6914 23.2021 35.7114 23.1226 35.7246C23.0431 35.7379 22.9569 35.7446 22.8642 35.7446C22.6853 35.7446 22.5197 35.718 22.3739 35.6582C22.2281 35.6051 22.1023 35.5187 22.0029 35.4058C21.9035 35.2929 21.824 35.1534 21.771 34.9873C21.718 34.8212 21.6915 34.6286 21.6915 34.4027C21.6915 34.1769 21.718 33.9776 21.7842 33.8049C21.8439 33.6322 21.93 33.486 22.036 33.3665C22.142 33.2469 22.2745 33.1539 22.4203 33.0941C22.5727 33.0343 22.7383 33.0011 22.9172 33.0011C22.9901 33.0011 23.0629 33.0011 23.1292 33.021C23.1954 33.0343 23.2617 33.0476 23.3213 33.0675C23.381 33.0875 23.434 33.1074 23.4803 33.134C23.5267 33.1605 23.5598 33.1805 23.5797 33.2004C23.5996 33.2203 23.6128 33.2336 23.6195 33.2469C23.6261 33.2602 23.6327 33.2735 23.6327 33.2934C23.6327 33.3133 23.6393 33.3333 23.6393 33.3598C23.6393 33.3864 23.6393 33.4196 23.6393 33.4528C23.6393 33.4927 23.6393 33.5259 23.6393 33.5591C23.6393 33.5857 23.6327 33.6123 23.6261 33.6322C23.6195 33.6521 23.6128 33.6654 23.5996 33.672C23.5863 33.6787 23.5797 33.6853 23.5665 33.6853C23.5466 33.6853 23.5201 33.672 23.487 33.6521C23.4538 33.6255 23.4141 33.599 23.3677 33.5724C23.3147 33.5458 23.2617 33.5193 23.1888 33.4927C23.1226 33.4661 23.0364 33.4595 22.9437 33.4595C22.8377 33.4595 22.7449 33.4794 22.6654 33.5259C22.5859 33.5724 22.513 33.6322 22.4534 33.7119C22.3938 33.7916 22.354 33.8912 22.3209 34.0042C22.2878 34.1171 22.2745 34.2433 22.2745 34.3895C22.2745 34.5422 22.2878 34.6817 22.3209 34.7947C22.354 34.9076 22.4004 35.0006 22.46 35.0737C22.5197 35.1467 22.5925 35.1999 22.672 35.2397C22.7515 35.2796 22.8509 35.2929 22.9569 35.2929C23.0497 35.2929 23.1358 35.2796 23.2021 35.2597C23.2683 35.2397 23.3346 35.2132 23.381 35.1866C23.4273 35.16 23.4737 35.1334 23.5002 35.1135C23.5333 35.0936 23.5598 35.0803 23.5731 35.0803C23.5863 35.0803 23.5996 35.0803 23.6062 35.0869C23.6128 35.0869 23.6195 35.1069 23.6261 35.1202C23.6261 35.1334 23.6327 35.16 23.6393 35.1866C23.6393 35.2132 23.6393 35.253 23.6393 35.3061H23.6327Z" fill="#B4B4B4"/>
<path d="M26.0841 35.6383C26.0841 35.6383 26.0841 35.6649 26.0709 35.6781C26.0642 35.6914 26.0444 35.6981 26.0245 35.7047C26.0046 35.7114 25.9781 35.718 25.945 35.718C25.9119 35.718 25.8655 35.718 25.8191 35.718C25.7727 35.718 25.7197 35.718 25.6866 35.718C25.6535 35.718 25.627 35.7114 25.6071 35.7047C25.5872 35.7047 25.574 35.6914 25.5673 35.6781C25.5607 35.6649 25.5541 35.6516 25.5541 35.6383V34.5688H24.5669V35.6383C24.5669 35.6383 24.5669 35.6649 24.5536 35.6781C24.547 35.6914 24.5338 35.6981 24.5073 35.7047C24.4874 35.7114 24.4609 35.718 24.4278 35.718C24.3946 35.718 24.3483 35.718 24.2953 35.718C24.2423 35.718 24.2025 35.718 24.1628 35.718C24.1296 35.718 24.1031 35.7114 24.0832 35.7047C24.0634 35.7047 24.0501 35.6914 24.0369 35.6781C24.0236 35.6649 24.0236 35.6516 24.0236 35.6383V33.134C24.0236 33.134 24.0236 33.1074 24.0369 33.1008C24.0435 33.0875 24.0634 33.0808 24.0832 33.0742C24.1031 33.0675 24.1296 33.0609 24.1628 33.0543C24.1959 33.0543 24.2423 33.0543 24.2953 33.0543C24.3483 33.0543 24.3946 33.0543 24.4278 33.0543C24.4609 33.0543 24.4874 33.0609 24.5073 33.0742C24.5271 33.0742 24.5404 33.0875 24.5536 33.1008C24.5603 33.1141 24.5669 33.1207 24.5669 33.134V34.1105H25.5541V33.134C25.5541 33.134 25.5541 33.1074 25.5673 33.1008C25.574 33.0875 25.5938 33.0808 25.6071 33.0742C25.627 33.0675 25.6535 33.0609 25.6866 33.0543C25.7197 33.0543 25.7661 33.0543 25.8191 33.0543C25.8721 33.0543 25.9119 33.0543 25.945 33.0543C25.9781 33.0543 26.0046 33.0609 26.0245 33.0742C26.0444 33.0742 26.0576 33.0875 26.0709 33.1008C26.0775 33.1141 26.0841 33.1207 26.0841 33.134V35.6383Z" fill="#B4B4B4"/>
<path d="M29.1715 34.9142C29.1715 35.0537 29.145 35.1733 29.092 35.2796C29.039 35.3859 28.9728 35.4722 28.88 35.5453C28.7939 35.6184 28.6879 35.6715 28.5686 35.7047C28.4494 35.7379 28.3235 35.7579 28.191 35.7579C28.0982 35.7579 28.0121 35.7512 27.9392 35.7379C27.8663 35.7246 27.7935 35.7047 27.7338 35.6848C27.6742 35.6649 27.6212 35.6383 27.5814 35.6184C27.5417 35.5984 27.5152 35.5719 27.4953 35.5586C27.4754 35.5386 27.4622 35.5121 27.4556 35.4789C27.4489 35.4456 27.4423 35.3991 27.4423 35.3327C27.4423 35.2929 27.4423 35.253 27.4423 35.2264C27.4423 35.1999 27.4489 35.1733 27.4556 35.16C27.4556 35.1401 27.4688 35.1268 27.4821 35.1202C27.4953 35.1135 27.5019 35.1069 27.5152 35.1069C27.5351 35.1069 27.5616 35.1202 27.5947 35.1401C27.6278 35.16 27.6742 35.1866 27.7272 35.2132C27.7802 35.2397 27.8465 35.2663 27.9193 35.2862C27.9922 35.3062 28.085 35.3194 28.1844 35.3194C28.2506 35.3194 28.3102 35.3128 28.3632 35.2929C28.4162 35.2796 28.456 35.253 28.4958 35.2264C28.5289 35.1999 28.562 35.16 28.5753 35.1202C28.5951 35.0803 28.6018 35.0338 28.6018 34.9807C28.6018 34.9209 28.5819 34.8677 28.5554 34.8279C28.5223 34.7814 28.4825 34.7482 28.4295 34.7149C28.3765 34.6817 28.3169 34.6485 28.2506 34.6219C28.1844 34.5954 28.1115 34.5622 28.0452 34.5289C27.9723 34.4957 27.9061 34.4559 27.8398 34.416C27.7736 34.3762 27.714 34.323 27.661 34.2699C27.608 34.2101 27.5682 34.1437 27.5351 34.064C27.5019 33.9842 27.4887 33.8912 27.4887 33.7783C27.4887 33.6521 27.5152 33.5392 27.5616 33.4462C27.608 33.3532 27.6742 33.2668 27.7537 33.207C27.8332 33.1406 27.926 33.0941 28.0386 33.0676C28.1446 33.0343 28.2639 33.021 28.3831 33.021C28.4427 33.021 28.509 33.0211 28.5686 33.0343C28.6283 33.0476 28.6879 33.0543 28.7475 33.0742C28.8005 33.0875 28.8535 33.1074 28.8933 33.1273C28.933 33.1473 28.9662 33.1672 28.9794 33.1805C28.9927 33.1938 28.9993 33.207 29.0059 33.2137C29.0059 33.2203 29.0125 33.2336 29.0192 33.2535C29.0258 33.2735 29.0192 33.2868 29.0258 33.3133C29.0258 33.3399 29.0258 33.3665 29.0258 33.3997C29.0258 33.4395 29.0258 33.4728 29.0258 33.4993C29.0258 33.5259 29.0258 33.5525 29.0125 33.5658C29.0125 33.5857 28.9993 33.599 28.9927 33.6056C28.986 33.6123 28.9728 33.6189 28.9595 33.6189C28.9463 33.6189 28.9198 33.6123 28.8867 33.5923C28.8535 33.5724 28.8138 33.5525 28.7674 33.5325C28.721 33.5126 28.6614 33.4927 28.6018 33.4728C28.5421 33.4528 28.4692 33.4462 28.3964 33.4462C28.3367 33.4462 28.2837 33.4528 28.244 33.4661C28.1976 33.4794 28.1645 33.4993 28.1314 33.5259C28.1049 33.5525 28.0784 33.579 28.0651 33.6189C28.0519 33.6521 28.0452 33.692 28.0452 33.7318C28.0452 33.7916 28.0585 33.8447 28.0916 33.8846C28.1247 33.9245 28.1645 33.9643 28.2175 33.9975C28.2705 34.0307 28.3301 34.064 28.403 34.0905C28.4693 34.1171 28.5421 34.1503 28.6084 34.1835C28.6813 34.2167 28.7475 34.2566 28.8138 34.2965C28.88 34.3363 28.9397 34.3895 28.9927 34.4492C29.0457 34.509 29.092 34.5754 29.1252 34.6552C29.1583 34.7349 29.1715 34.8279 29.1715 34.9342V34.9142Z" fill="#B4B4B4"/>
<path d="M31.3977 33.8647C31.3977 34.0108 31.3778 34.1437 31.3314 34.2632C31.285 34.3828 31.2188 34.4758 31.126 34.5555C31.0333 34.6352 30.9273 34.695 30.8014 34.7349C30.6755 34.7747 30.5231 34.7947 30.3442 34.7947H30.1256V35.6383C30.1256 35.6383 30.1256 35.6649 30.1123 35.6781C30.0991 35.6914 30.0858 35.6981 30.066 35.7047C30.0461 35.7114 30.0196 35.718 29.9865 35.718C29.9533 35.718 29.907 35.718 29.854 35.718C29.801 35.718 29.7612 35.718 29.7214 35.718C29.6883 35.718 29.6618 35.7114 29.6419 35.7047C29.6221 35.7047 29.6088 35.6914 29.6022 35.6781C29.5956 35.6649 29.5889 35.6516 29.5889 35.6383V33.2535C29.5889 33.1871 29.6022 33.1406 29.6419 33.1074C29.6751 33.0742 29.7214 33.0609 29.7745 33.0609H30.3972C30.4569 33.0609 30.5165 33.0609 30.5761 33.0675C30.6358 33.0675 30.702 33.0808 30.7815 33.1008C30.861 33.114 30.9405 33.1473 31.02 33.1871C31.0995 33.227 31.1724 33.2868 31.2254 33.3465C31.285 33.413 31.3248 33.486 31.3579 33.5724C31.3844 33.6587 31.4043 33.7584 31.4043 33.8647H31.3977ZM30.8345 33.9045C30.8345 33.8115 30.8213 33.7385 30.7881 33.672C30.755 33.6122 30.7153 33.5657 30.6689 33.5392C30.6225 33.5126 30.5695 33.4927 30.5165 33.486C30.4635 33.4794 30.4105 33.4728 30.3509 33.4728H30.119V34.3762H30.3575C30.4436 34.3762 30.5165 34.3629 30.5761 34.3429C30.6358 34.323 30.6821 34.2898 30.7153 34.2433C30.755 34.2035 30.7815 34.1503 30.8014 34.0905C30.8213 34.0307 30.8279 33.971 30.8279 33.8979L30.8345 33.9045Z" fill="#B4B4B4"/>
<path d="M33.3787 35.4988C33.3787 35.5386 33.3787 35.5719 33.3787 35.5984C33.3787 35.625 33.372 35.6449 33.3654 35.6649C33.3588 35.6848 33.3522 35.6914 33.3389 35.6981C33.3323 35.7047 33.319 35.7114 33.3058 35.7114H31.9741C31.9277 35.7114 31.8946 35.6981 31.8614 35.6715C31.8283 35.6449 31.8151 35.5984 31.8151 35.5387V33.227C31.8151 33.1672 31.8283 33.1207 31.8614 33.0941C31.8946 33.0675 31.9277 33.0543 31.9741 33.0543H33.2925C33.2925 33.0543 33.3124 33.0543 33.3257 33.0676C33.3323 33.0676 33.3455 33.0875 33.3522 33.1008C33.3588 33.1207 33.3654 33.1406 33.3654 33.1672C33.3654 33.1938 33.3654 33.227 33.3654 33.2668C33.3654 33.3067 33.3654 33.3399 33.3654 33.3665C33.3654 33.393 33.3588 33.413 33.3522 33.4329C33.3455 33.4528 33.3389 33.4595 33.3257 33.4661C33.319 33.4728 33.3058 33.4794 33.2925 33.4794H32.3451V34.1237H33.1468C33.1468 34.1237 33.1733 34.1237 33.1799 34.137C33.1931 34.1437 33.1998 34.157 33.2064 34.1702C33.2064 34.1835 33.2196 34.2101 33.2196 34.2367C33.2196 34.2632 33.2196 34.2965 33.2196 34.3363C33.2196 34.3762 33.2196 34.4094 33.2196 34.436C33.2196 34.4625 33.213 34.4825 33.2064 34.4957C33.1998 34.509 33.1931 34.5223 33.1799 34.529C33.1733 34.529 33.16 34.5422 33.1468 34.5422H32.3451V35.2929H33.2991C33.2991 35.2929 33.3257 35.2929 33.3323 35.3062C33.3455 35.3128 33.3522 35.3261 33.3588 35.3394C33.3588 35.3527 33.372 35.3792 33.372 35.4058C33.372 35.4324 33.372 35.4656 33.372 35.5054L33.3787 35.4988Z" fill="#B4B4B4"/>
<path d="M35.6247 35.3061C35.6247 35.3394 35.6247 35.3659 35.6247 35.3925C35.6247 35.4191 35.6247 35.439 35.618 35.4523C35.618 35.4722 35.6114 35.4855 35.6048 35.4988C35.5982 35.5121 35.5849 35.5254 35.5717 35.5386C35.5584 35.5519 35.5253 35.5719 35.4855 35.5984C35.4391 35.625 35.3928 35.6449 35.3265 35.6715C35.2669 35.6914 35.194 35.7114 35.1145 35.7246C35.035 35.7379 34.9489 35.7446 34.8561 35.7446C34.6772 35.7446 34.5116 35.718 34.3658 35.6582C34.2201 35.6051 34.0942 35.5187 33.9948 35.4058C33.8954 35.2929 33.8159 35.1534 33.7629 34.9873C33.7099 34.8212 33.6834 34.6286 33.6834 34.4027C33.6834 34.1769 33.7099 33.9776 33.7762 33.8049C33.8358 33.6322 33.9219 33.486 34.0279 33.3665C34.1339 33.2469 34.2665 33.1539 34.4122 33.0941C34.5646 33.0343 34.7302 33.0011 34.9091 33.0011C34.982 33.0011 35.0549 33.0011 35.1211 33.021C35.1874 33.0343 35.2536 33.0476 35.3133 33.0675C35.3729 33.0875 35.4259 33.1074 35.4723 33.134C35.5187 33.1605 35.5518 33.1805 35.5717 33.2004C35.5915 33.2203 35.6048 33.2336 35.6114 33.2469C35.618 33.2602 35.6247 33.2735 35.6247 33.2934C35.6247 33.3133 35.6313 33.3333 35.6313 33.3598C35.6313 33.3864 35.6313 33.4196 35.6313 33.4528C35.6313 33.4927 35.6313 33.5259 35.6313 33.5591C35.6313 33.5857 35.6247 33.6123 35.618 33.6322C35.6114 33.6521 35.6048 33.6654 35.5915 33.672C35.5783 33.6787 35.5717 33.6853 35.5584 33.6853C35.5385 33.6853 35.512 33.672 35.4789 33.6521C35.4458 33.6255 35.406 33.599 35.3596 33.5724C35.3066 33.5458 35.2536 33.5193 35.1808 33.4927C35.1145 33.4661 35.0284 33.4595 34.9356 33.4595C34.8296 33.4595 34.7369 33.4794 34.6574 33.5259C34.5779 33.5724 34.505 33.6322 34.4453 33.7119C34.3857 33.7916 34.346 33.8912 34.3128 34.0042C34.2797 34.1171 34.2665 34.2433 34.2665 34.3895C34.2665 34.5422 34.2797 34.6817 34.3128 34.7947C34.346 34.9076 34.3923 35.0006 34.452 35.0737C34.5116 35.1467 34.5845 35.1999 34.664 35.2397C34.7435 35.2796 34.8429 35.2929 34.9489 35.2929C35.0416 35.2929 35.1278 35.2796 35.194 35.2597C35.2603 35.2397 35.3265 35.2132 35.3729 35.1866C35.4193 35.16 35.4657 35.1334 35.4922 35.1135C35.5253 35.0936 35.5518 35.0803 35.565 35.0803C35.5783 35.0803 35.5915 35.0803 35.5982 35.0869C35.6048 35.0869 35.6114 35.1069 35.618 35.1202C35.618 35.1334 35.6247 35.16 35.6313 35.1866C35.6313 35.2132 35.6313 35.253 35.6313 35.3061H35.6247Z" fill="#B4B4B4"/>
<path d="M36.5522 35.6383C36.5522 35.6383 36.5522 35.6649 36.539 35.6781C36.5323 35.6914 36.5125 35.6981 36.4926 35.7047C36.4727 35.7114 36.4462 35.718 36.4131 35.718C36.38 35.718 36.3336 35.718 36.2806 35.718C36.2276 35.718 36.1878 35.718 36.1481 35.718C36.1149 35.718 36.0884 35.7114 36.0686 35.7047C36.0487 35.7047 36.0354 35.6914 36.0222 35.6781C36.0089 35.6649 36.0089 35.6516 36.0089 35.6383V33.134C36.0089 33.134 36.0089 33.1074 36.0222 33.1008C36.0288 33.0875 36.0487 33.0808 36.0686 33.0742C36.0884 33.0675 36.1149 33.0609 36.1481 33.0543C36.1812 33.0543 36.2276 33.0543 36.2739 33.0543C36.3203 33.0543 36.3733 33.0543 36.4065 33.0543C36.4396 33.0543 36.4661 33.0609 36.486 33.0742C36.5058 33.0742 36.5191 33.0875 36.5323 33.1008C36.539 33.1141 36.5456 33.1207 36.5456 33.134V35.6383H36.5522Z" fill="#B4B4B4"/>
<path d="M39.2951 35.5054C39.315 35.5519 39.3216 35.5918 39.3282 35.625C39.3282 35.6516 39.3282 35.6781 39.3084 35.6914C39.2951 35.7047 39.2686 35.718 39.2289 35.718C39.1891 35.718 39.1361 35.718 39.0699 35.718C39.0036 35.718 38.944 35.718 38.9042 35.718C38.8645 35.718 38.838 35.718 38.8181 35.7047C38.7982 35.7047 38.785 35.6914 38.7783 35.6781C38.7717 35.6649 38.7651 35.6516 38.7585 35.6316L38.5796 35.1002H37.5858L37.4201 35.6184C37.4201 35.6184 37.4069 35.6516 37.4003 35.6649C37.3936 35.6781 37.3738 35.6848 37.3605 35.6981C37.3406 35.7047 37.3141 35.7114 37.2744 35.7114C37.2413 35.7114 37.1882 35.7114 37.1352 35.7114C37.0756 35.7114 37.0226 35.7114 36.9895 35.7114C36.9564 35.7114 36.9299 35.6981 36.9166 35.6848C36.9034 35.6715 36.8967 35.6449 36.9034 35.6184C36.91 35.5918 36.9166 35.5519 36.9365 35.5054L37.7514 33.1539C37.7514 33.1539 37.7713 33.1141 37.7779 33.1008C37.7845 33.0875 37.8044 33.0742 37.8309 33.0676C37.8574 33.0609 37.8905 33.0543 37.9303 33.0543C37.97 33.0543 38.0297 33.0543 38.0959 33.0543C38.1754 33.0543 38.2417 33.0543 38.2881 33.0543C38.3344 33.0543 38.3742 33.0609 38.4007 33.0676C38.4272 33.0742 38.4471 33.0875 38.4603 33.1008C38.4736 33.1141 38.4802 33.134 38.4868 33.1605L39.3017 35.5121L39.2951 35.5054ZM38.0827 33.5658L37.7117 34.695H38.4603L38.0827 33.5658Z" fill="#B4B4B4"/>
<path d="M41.1171 35.4855C41.1171 35.5254 41.1171 35.5586 41.1171 35.5918C41.1171 35.6184 41.1105 35.6449 41.1038 35.6582C41.0972 35.6781 41.0906 35.6914 41.0773 35.6981C41.0707 35.7047 41.0575 35.7114 41.0442 35.7114H39.8318C39.7854 35.7114 39.7523 35.6981 39.7191 35.6715C39.686 35.6449 39.6728 35.5984 39.6728 35.5387V33.1273C39.6728 33.1273 39.6728 33.1008 39.686 33.0941C39.6926 33.0808 39.7125 33.0742 39.7324 33.0676C39.7523 33.0609 39.7788 33.0543 39.8119 33.0476C39.845 33.0476 39.8914 33.0476 39.9444 33.0476C39.9974 33.0476 40.0438 33.0476 40.0769 33.0476C40.11 33.0476 40.1365 33.0543 40.1564 33.0676C40.1763 33.0676 40.1895 33.0808 40.2028 33.0941C40.2094 33.1074 40.216 33.114 40.216 33.1273V35.2597H41.0508C41.0508 35.2597 41.0773 35.2597 41.084 35.2729C41.0972 35.2796 41.1038 35.2929 41.1105 35.3128C41.1105 35.3327 41.1237 35.3527 41.1237 35.3792C41.1237 35.4058 41.1237 35.439 41.1237 35.4855H41.1171Z" fill="#B4B4B4"/>
<path d="M10.2892 39.7501C10.2892 39.79 10.2892 39.8232 10.2892 39.8498C10.2892 39.8764 10.2826 39.8963 10.276 39.9162C10.2693 39.9361 10.2627 39.9428 10.2495 39.9494C10.2428 39.9561 10.2296 39.9627 10.2163 39.9627H8.88463C8.83825 39.9627 8.80513 39.9494 8.772 39.9229C8.73887 39.8963 8.72562 39.8498 8.72562 39.79V37.4783C8.72562 37.4185 8.73887 37.372 8.772 37.3455C8.80513 37.3189 8.83825 37.3056 8.88463 37.3056H10.2031C10.2031 37.3056 10.223 37.3056 10.2362 37.3189C10.2428 37.3189 10.2561 37.3388 10.2627 37.3521C10.2693 37.372 10.276 37.392 10.276 37.4185C10.276 37.4451 10.276 37.4783 10.276 37.5182C10.276 37.558 10.276 37.5912 10.276 37.6178C10.276 37.6444 10.2693 37.6643 10.2627 37.6842C10.2561 37.7042 10.2495 37.7108 10.2362 37.7175C10.2296 37.7241 10.2163 37.7308 10.2031 37.7308H9.25565V38.3751H10.0573C10.0573 38.3751 10.0838 38.3751 10.0905 38.3884C10.1037 38.395 10.1103 38.4083 10.117 38.4216C10.117 38.4349 10.1302 38.4615 10.1302 38.488C10.1302 38.5146 10.1302 38.5478 10.1302 38.5877C10.1302 38.6275 10.1302 38.6607 10.1302 38.6873C10.1302 38.7139 10.1236 38.7338 10.117 38.7471C10.1103 38.7604 10.1037 38.7737 10.0905 38.7803C10.0838 38.7803 10.0706 38.7936 10.0573 38.7936H9.25565V39.5442H10.2097C10.2097 39.5442 10.2362 39.5442 10.2428 39.5575C10.2561 39.5641 10.2627 39.5774 10.2693 39.5907C10.2693 39.604 10.2826 39.6306 10.2826 39.6571C10.2826 39.6837 10.2826 39.7169 10.2826 39.7568L10.2892 39.7501Z" fill="#B4B4B4"/>
<path d="M12.5352 39.5575C12.5352 39.5907 12.5352 39.6173 12.5352 39.6439C12.5352 39.6704 12.5352 39.6904 12.5286 39.7036C12.5286 39.7236 12.522 39.7369 12.5153 39.7501C12.5087 39.7634 12.4955 39.7767 12.4822 39.79C12.469 39.8033 12.4358 39.8232 12.3961 39.8498C12.3497 39.8764 12.3033 39.8963 12.2371 39.9229C12.1774 39.9428 12.1046 39.9627 12.0251 39.976C11.9456 39.9893 11.8594 39.9959 11.7667 39.9959C11.5878 39.9959 11.4222 39.9694 11.2764 39.9096C11.1306 39.8564 11.0048 39.7701 10.9054 39.6571C10.806 39.5442 10.7265 39.4047 10.6735 39.2387C10.6205 39.0726 10.594 38.8799 10.594 38.6541C10.594 38.4282 10.6205 38.229 10.6867 38.0562C10.7464 37.8835 10.8325 37.7374 10.9385 37.6178C11.0445 37.4983 11.177 37.4053 11.3228 37.3455C11.4752 37.2857 11.6408 37.2525 11.8197 37.2525C11.8926 37.2525 11.9654 37.2525 12.0317 37.2724C12.0979 37.2857 12.1642 37.299 12.2238 37.3189C12.2835 37.3388 12.3365 37.3588 12.3828 37.3853C12.4292 37.4119 12.4623 37.4318 12.4822 37.4518C12.5021 37.4717 12.5153 37.485 12.522 37.4983C12.5286 37.5115 12.5352 37.5248 12.5352 37.5448C12.5352 37.5647 12.5418 37.5846 12.5418 37.6112C12.5418 37.6378 12.5418 37.671 12.5418 37.7042C12.5418 37.744 12.5418 37.7772 12.5418 37.8105C12.5418 37.837 12.5352 37.8636 12.5286 37.8835C12.522 37.9035 12.5153 37.9167 12.5021 37.9234C12.4888 37.93 12.4822 37.9367 12.469 37.9367C12.4491 37.9367 12.4226 37.9234 12.3895 37.9035C12.3563 37.8769 12.3166 37.8503 12.2702 37.8237C12.2172 37.7972 12.1642 37.7706 12.0913 37.744C12.0251 37.7175 11.9389 37.7108 11.8462 37.7108C11.7402 37.7108 11.6474 37.7307 11.5679 37.7772C11.4884 37.8237 11.4155 37.8835 11.3559 37.9632C11.2963 38.043 11.2565 38.1426 11.2234 38.2555C11.1903 38.3685 11.177 38.4947 11.177 38.6408C11.177 38.7936 11.1903 38.9331 11.2234 39.046C11.2565 39.1589 11.3029 39.2519 11.3625 39.325C11.4222 39.3981 11.495 39.4512 11.5745 39.4911C11.654 39.5309 11.7534 39.5442 11.8594 39.5442C11.9522 39.5442 12.0383 39.5309 12.1046 39.511C12.1708 39.4911 12.2371 39.4645 12.2835 39.4379C12.3298 39.4114 12.3762 39.3848 12.4027 39.3649C12.4358 39.3449 12.4623 39.3316 12.4756 39.3316C12.4888 39.3316 12.5021 39.3316 12.5087 39.3383C12.5153 39.3383 12.522 39.3582 12.5286 39.3715C12.5286 39.3848 12.5352 39.4114 12.5418 39.4379C12.5418 39.4645 12.5418 39.5044 12.5418 39.5575H12.5352Z" fill="#B4B4B4"/>
<path d="M15.2649 38.601C15.2649 38.8202 15.2384 39.0194 15.1854 39.1922C15.1324 39.3649 15.0462 39.511 14.9402 39.6372C14.8342 39.7568 14.7017 39.8498 14.5427 39.9162C14.3837 39.9826 14.1982 40.0092 13.9928 40.0092C13.7874 40.0092 13.6085 39.9826 13.4561 39.9295C13.3038 39.8764 13.1779 39.79 13.0719 39.6837C12.9659 39.5774 12.893 39.4313 12.84 39.2586C12.787 39.0859 12.7605 38.8866 12.7605 38.6541C12.7605 38.4415 12.787 38.2489 12.84 38.0762C12.893 37.9035 12.9791 37.7573 13.0851 37.6378C13.1911 37.5182 13.3236 37.4252 13.4826 37.3588C13.6417 37.2923 13.8272 37.2591 14.0326 37.2591C14.2379 37.2591 14.4102 37.2857 14.5626 37.3388C14.715 37.392 14.8408 37.4717 14.9469 37.5846C15.0529 37.6975 15.1257 37.837 15.1787 38.0031C15.2317 38.1692 15.2582 38.3685 15.2582 38.601H15.2649ZM14.7017 38.6342C14.7017 38.4947 14.6885 38.3685 14.6686 38.2555C14.6487 38.1426 14.609 38.043 14.556 37.9632C14.503 37.8835 14.4367 37.8171 14.3439 37.7772C14.2578 37.7307 14.1452 37.7108 14.0193 37.7108C13.8934 37.7108 13.7742 37.7374 13.688 37.7839C13.6019 37.837 13.529 37.9035 13.476 37.9832C13.423 38.0695 13.3833 38.1625 13.3634 38.2755C13.3435 38.3884 13.3303 38.508 13.3303 38.6275C13.3303 38.7737 13.3435 38.8999 13.3634 39.0194C13.3833 39.1324 13.423 39.232 13.476 39.3184C13.529 39.3981 13.5953 39.4645 13.688 39.5044C13.7742 39.5509 13.8868 39.5708 14.0193 39.5708C14.1518 39.5708 14.2644 39.5442 14.3506 39.4977C14.4367 39.4512 14.5096 39.3848 14.5626 39.2984C14.6156 39.2121 14.6553 39.1124 14.6752 38.9995C14.6951 38.8866 14.7083 38.767 14.7083 38.6408L14.7017 38.6342Z" fill="#B4B4B4"/>
<path d="M17.9018 39.7701C17.9018 39.7701 17.9018 39.8299 17.8885 39.8564C17.8753 39.883 17.862 39.9029 17.8421 39.9162C17.8223 39.9295 17.8024 39.9428 17.7759 39.9494C17.7494 39.9561 17.7229 39.9627 17.6964 39.9627H17.4645C17.4181 39.9627 17.3784 39.9627 17.3386 39.9494C17.3055 39.9428 17.2724 39.9229 17.2459 39.8963C17.2194 39.8697 17.1862 39.8365 17.1597 39.7966C17.1332 39.7501 17.1001 39.697 17.067 39.6306L16.4111 38.3884C16.3713 38.3153 16.3316 38.2356 16.2918 38.1492C16.2521 38.0629 16.2189 37.9832 16.1858 37.8968C16.1858 37.9965 16.1924 38.0961 16.199 38.1891C16.199 38.2887 16.199 38.3884 16.199 38.4947V39.883C16.199 39.883 16.199 39.9096 16.1858 39.9229C16.1792 39.9361 16.1659 39.9428 16.146 39.9494C16.1262 39.9561 16.0997 39.9627 16.0732 39.9694C16.04 39.9694 16.0003 39.9694 15.9539 39.9694C15.9075 39.9694 15.8678 39.9694 15.8347 39.9694C15.8015 39.9694 15.7817 39.9627 15.7618 39.9494C15.7419 39.9428 15.7353 39.9295 15.722 39.9229C15.722 39.9096 15.7154 39.8963 15.7154 39.883V37.4983C15.7154 37.4318 15.7353 37.3853 15.7684 37.3521C15.8082 37.3189 15.8545 37.3056 15.9075 37.3056H16.1924C16.2454 37.3056 16.2852 37.3056 16.3249 37.3189C16.3581 37.3255 16.3912 37.3455 16.4177 37.3654C16.4442 37.3853 16.4707 37.4119 16.4972 37.4518C16.5237 37.485 16.5502 37.5315 16.5701 37.5846L17.0868 38.5544C17.1134 38.6142 17.1465 38.674 17.173 38.7272C17.1995 38.7869 17.2326 38.8401 17.2591 38.8999C17.2856 38.9597 17.3121 39.0128 17.3386 39.0659C17.3651 39.1191 17.3916 39.1789 17.4115 39.232C17.4115 39.139 17.4049 39.0394 17.4049 38.9331C17.4049 38.8268 17.4049 38.7338 17.4049 38.6342V37.392C17.4049 37.392 17.4049 37.3654 17.4181 37.3521C17.4247 37.3388 17.438 37.3322 17.4579 37.3255C17.4777 37.3189 17.5042 37.3123 17.5308 37.3056C17.5639 37.3056 17.6036 37.3056 17.65 37.3056C17.6964 37.3056 17.7361 37.3056 17.7693 37.3056C17.8024 37.3056 17.8223 37.3123 17.8421 37.3255C17.862 37.3322 17.8686 37.3455 17.8753 37.3521C17.8753 37.3654 17.8819 37.3787 17.8819 37.392V39.7767L17.9018 39.7701Z" fill="#B4B4B4"/>
<path d="M20.8567 38.601C20.8567 38.8202 20.8302 39.0194 20.7772 39.1922C20.7242 39.3649 20.6381 39.511 20.532 39.6372C20.426 39.7568 20.2935 39.8498 20.1345 39.9162C19.9755 39.9826 19.79 40.0092 19.5846 40.0092C19.3792 40.0092 19.2003 39.9826 19.048 39.9295C18.8956 39.8764 18.7697 39.79 18.6637 39.6837C18.5577 39.5774 18.4848 39.4313 18.4318 39.2586C18.3788 39.0859 18.3523 38.8866 18.3523 38.6541C18.3523 38.4415 18.3788 38.2489 18.4318 38.0762C18.4848 37.9035 18.5709 37.7573 18.6769 37.6378C18.7829 37.5182 18.9155 37.4252 19.0745 37.3588C19.2335 37.2923 19.419 37.2591 19.6244 37.2591C19.8298 37.2591 20.002 37.2857 20.1544 37.3388C20.3068 37.392 20.4327 37.4717 20.5387 37.5846C20.6447 37.6975 20.7176 37.837 20.7706 38.0031C20.8236 38.1692 20.8501 38.3685 20.8501 38.601H20.8567ZM20.2935 38.6342C20.2935 38.4947 20.2803 38.3685 20.2604 38.2555C20.2405 38.1426 20.2008 38.043 20.1478 37.9632C20.0948 37.8835 20.0285 37.8171 19.9358 37.7772C19.8496 37.7307 19.737 37.7108 19.6111 37.7108C19.4852 37.7108 19.366 37.7374 19.2799 37.7839C19.1937 37.837 19.1208 37.9035 19.0678 37.9832C19.0148 38.0695 18.9751 38.1625 18.9552 38.2755C18.9353 38.3884 18.9221 38.508 18.9221 38.6275C18.9221 38.7737 18.9353 38.8999 18.9552 39.0194C18.9751 39.1324 19.0148 39.232 19.0678 39.3184C19.1208 39.3981 19.1871 39.4645 19.2799 39.5044C19.366 39.5509 19.4786 39.5708 19.6111 39.5708C19.7436 39.5708 19.8563 39.5442 19.9424 39.4977C20.0285 39.4512 20.1014 39.3848 20.1544 39.2984C20.2074 39.2121 20.2472 39.1124 20.267 38.9995C20.2869 38.8866 20.3002 38.767 20.3002 38.6408L20.2935 38.6342Z" fill="#B4B4B4"/>
<path d="M24.3946 39.8896C24.3946 39.8896 24.3946 39.9162 24.3814 39.9295C24.3748 39.9428 24.3615 39.9494 24.3416 39.9561C24.3218 39.9627 24.2953 39.9693 24.2621 39.9693C24.229 39.9693 24.1893 39.9693 24.1363 39.9693C24.0832 39.9693 24.0435 39.9693 24.0104 39.9693C23.9772 39.9693 23.9507 39.9627 23.9309 39.9561C23.911 39.9561 23.8977 39.9428 23.8911 39.9295C23.8845 39.9162 23.8779 39.9029 23.8779 39.8896V37.7307L23.1093 39.8896C23.1093 39.8896 23.0961 39.9228 23.0828 39.9361C23.0696 39.9494 23.0563 39.9561 23.0298 39.9627C23.0099 39.9627 22.9834 39.976 22.9503 39.976C22.9172 39.976 22.8774 39.976 22.8311 39.976C22.7847 39.976 22.7449 39.976 22.7118 39.976C22.6787 39.976 22.6522 39.9694 22.6323 39.9627C22.6124 39.9561 22.5925 39.9428 22.5793 39.9361C22.566 39.9295 22.5594 39.9096 22.5528 39.8963L21.8107 37.7374V39.8963C21.8107 39.8963 21.8107 39.9228 21.7975 39.9361C21.7842 39.9494 21.7776 39.9561 21.7577 39.9627C21.7379 39.9694 21.7114 39.976 21.6782 39.976C21.6451 39.976 21.6054 39.976 21.5524 39.976C21.4994 39.976 21.4596 39.976 21.4331 39.976C21.4 39.976 21.3735 39.9694 21.3536 39.9627C21.3337 39.9627 21.3205 39.9494 21.3138 39.9361C21.3072 39.9228 21.3006 39.9096 21.3006 39.8963V37.5315C21.3006 37.4584 21.3205 37.4053 21.3536 37.372C21.3867 37.3388 21.4397 37.3189 21.4994 37.3189H21.8505C21.9101 37.3189 21.9698 37.3189 22.0095 37.3322C22.0559 37.3455 22.0956 37.3588 22.1288 37.3853C22.1619 37.4119 22.1884 37.4385 22.2083 37.4783C22.2281 37.5182 22.248 37.5647 22.2679 37.6245L22.8377 39.2054H22.8443L23.4406 37.6311C23.4605 37.5713 23.4803 37.5248 23.5002 37.485C23.5201 37.4451 23.5466 37.4119 23.5731 37.3853C23.5996 37.3588 23.6327 37.3455 23.6725 37.3322C23.7122 37.3255 23.752 37.3189 23.805 37.3189H24.1694C24.2091 37.3189 24.2356 37.3189 24.2621 37.3322C24.2886 37.3455 24.3085 37.3588 24.3284 37.372C24.3483 37.392 24.3549 37.4119 24.3681 37.4385C24.3748 37.465 24.3814 37.4982 24.3814 37.5315V39.8963L24.3946 39.8896Z" fill="#B4B4B4"/>
<path d="M25.5077 39.8896C25.5077 39.8896 25.5077 39.9162 25.4945 39.9295C25.4878 39.9428 25.468 39.9494 25.4481 39.9561C25.4282 39.9627 25.4017 39.9694 25.3686 39.9694C25.3354 39.9694 25.2891 39.9694 25.2361 39.9694C25.1831 39.9694 25.1433 39.9694 25.1036 39.9694C25.0704 39.9694 25.0439 39.9627 25.0241 39.9561C25.0042 39.9561 24.9909 39.9428 24.9777 39.9295C24.9644 39.9162 24.9644 39.9029 24.9644 39.8896V37.3853C24.9644 37.3853 24.9644 37.3588 24.9777 37.3521C24.9843 37.3388 25.0042 37.3322 25.0241 37.3255C25.0439 37.3189 25.0704 37.3123 25.1036 37.3056C25.1367 37.3056 25.1831 37.3056 25.2294 37.3056C25.2758 37.3056 25.3288 37.3056 25.3619 37.3056C25.3951 37.3056 25.4216 37.3123 25.4415 37.3255C25.4613 37.3255 25.4746 37.3388 25.4878 37.3521C25.4945 37.3654 25.5011 37.372 25.5011 37.3853V39.8896H25.5077Z" fill="#B4B4B4"/>
<path d="M27.9193 39.5575C27.9193 39.5907 27.9193 39.6173 27.9193 39.6439C27.9193 39.6704 27.9193 39.6904 27.9127 39.7036C27.9127 39.7236 27.9061 39.7369 27.8995 39.7501C27.8928 39.7634 27.8796 39.7767 27.8663 39.79C27.8531 39.8033 27.82 39.8232 27.7802 39.8498C27.7338 39.8764 27.6875 39.8963 27.6212 39.9229C27.5616 39.9428 27.4887 39.9627 27.4092 39.976C27.3297 39.9893 27.2436 39.9959 27.1508 39.9959C26.9719 39.9959 26.8063 39.9694 26.6605 39.9096C26.5148 39.8564 26.3889 39.7701 26.2895 39.6571C26.1901 39.5442 26.1106 39.4047 26.0576 39.2387C26.0046 39.0726 25.9781 38.8799 25.9781 38.6541C25.9781 38.4282 26.0046 38.229 26.0709 38.0562C26.1305 37.8835 26.2166 37.7374 26.3226 37.6178C26.4286 37.4983 26.5611 37.4053 26.7069 37.3455C26.8593 37.2857 27.0249 37.2525 27.2038 37.2525C27.2767 37.2525 27.3496 37.2525 27.4158 37.2724C27.4821 37.2857 27.5483 37.299 27.608 37.3189C27.6676 37.3388 27.7206 37.3588 27.767 37.3853C27.8133 37.4119 27.8465 37.4318 27.8663 37.4518C27.8862 37.4717 27.8995 37.485 27.9061 37.4983C27.9127 37.5115 27.9193 37.5248 27.9193 37.5448C27.9193 37.5647 27.926 37.5846 27.926 37.6112C27.926 37.6378 27.926 37.671 27.926 37.7042C27.926 37.744 27.926 37.7772 27.926 37.8105C27.926 37.837 27.9193 37.8636 27.9127 37.8835C27.9061 37.9035 27.8995 37.9167 27.8862 37.9234C27.873 37.93 27.8663 37.9367 27.8531 37.9367C27.8332 37.9367 27.8067 37.9234 27.7736 37.9035C27.7405 37.8769 27.7007 37.8503 27.6543 37.8237C27.6013 37.7972 27.5483 37.7706 27.4754 37.744C27.4092 37.7175 27.3231 37.7108 27.2303 37.7108C27.1243 37.7108 27.0315 37.7307 26.952 37.7772C26.8725 37.8237 26.7997 37.8835 26.74 37.9632C26.6804 38.043 26.6406 38.1426 26.6075 38.2555C26.5744 38.3685 26.5611 38.4947 26.5611 38.6408C26.5611 38.7936 26.5744 38.9331 26.6075 39.046C26.6406 39.1589 26.687 39.2519 26.7467 39.325C26.8063 39.3981 26.8792 39.4512 26.9587 39.4911C27.0382 39.5309 27.1375 39.5442 27.2436 39.5442C27.3363 39.5442 27.4224 39.5309 27.4887 39.511C27.5549 39.4911 27.6212 39.4645 27.6676 39.4379C27.714 39.4114 27.7603 39.3848 27.7868 39.3649C27.82 39.3449 27.8465 39.3316 27.8597 39.3316C27.873 39.3316 27.8862 39.3316 27.8928 39.3383C27.8995 39.3383 27.9061 39.3582 27.9127 39.3715C27.9127 39.3848 27.9193 39.4114 27.926 39.4379C27.926 39.4645 27.926 39.5044 27.926 39.5575H27.9193Z" fill="#B4B4B4"/>
<path d="M30.8743 39.7501C30.8743 39.79 30.8743 39.8232 30.8743 39.8498C30.8743 39.8764 30.8676 39.9029 30.861 39.9162C30.861 39.9361 30.8478 39.9428 30.8345 39.9494C30.8213 39.9561 30.8146 39.9627 30.8014 39.9627H29.2378C29.1848 39.9627 29.1384 39.9494 29.1119 39.9162C29.0854 39.883 29.0655 39.8365 29.0655 39.7767V39.6837C29.0655 39.6837 29.0655 39.6306 29.0655 39.6106C29.0655 39.5907 29.0722 39.5641 29.0854 39.5442C29.092 39.5243 29.1053 39.4977 29.1185 39.4711C29.1318 39.4446 29.1517 39.4114 29.1782 39.3715L30.2051 37.7374H29.1848C29.1848 37.7374 29.1517 37.7374 29.145 37.7241C29.1318 37.7175 29.1252 37.7042 29.1185 37.6909C29.1119 37.671 29.1053 37.651 29.1053 37.6245C29.1053 37.5979 29.1053 37.5647 29.1053 37.5248C29.1053 37.485 29.1053 37.4518 29.1053 37.4185C29.1053 37.392 29.1119 37.3654 29.1185 37.3521C29.1252 37.3322 29.1384 37.3255 29.145 37.3189C29.1583 37.3123 29.1715 37.3056 29.1848 37.3056H30.649C30.702 37.3056 30.7484 37.3189 30.7749 37.3455C30.8014 37.372 30.8146 37.4119 30.8146 37.465V37.5647C30.8146 37.6045 30.8146 37.6311 30.8146 37.6577C30.8146 37.6843 30.808 37.7108 30.7948 37.7374C30.7815 37.764 30.7749 37.7905 30.7616 37.8171C30.7484 37.8437 30.7285 37.8769 30.702 37.9101L29.6949 39.5176H30.8014C30.8014 39.5176 30.8478 39.5309 30.861 39.5641C30.8743 39.5974 30.8809 39.6505 30.8809 39.7369L30.8743 39.7501Z" fill="#B4B4B4"/>
<path d="M33.5708 38.601C33.5708 38.8202 33.5443 39.0194 33.4913 39.1922C33.4383 39.3649 33.3521 39.511 33.2461 39.6372C33.1401 39.7568 33.0076 39.8498 32.8486 39.9162C32.6896 39.9826 32.5041 40.0092 32.2987 40.0092C32.0933 40.0092 31.9144 39.9826 31.7621 39.9295C31.6097 39.8764 31.4838 39.79 31.3778 39.6837C31.2718 39.5774 31.1989 39.4313 31.1459 39.2586C31.0929 39.0859 31.0664 38.8866 31.0664 38.6541C31.0664 38.4415 31.0929 38.2489 31.1459 38.0762C31.1989 37.9035 31.285 37.7573 31.391 37.6378C31.497 37.5182 31.6296 37.4252 31.7886 37.3588C31.9476 37.2923 32.1331 37.2591 32.3385 37.2591C32.5439 37.2591 32.7161 37.2857 32.8685 37.3388C33.0209 37.392 33.1468 37.4717 33.2528 37.5846C33.3588 37.6975 33.4317 37.837 33.4847 38.0031C33.5377 38.1692 33.5642 38.3685 33.5642 38.601H33.5708ZM33.0076 38.6342C33.0076 38.4947 32.9944 38.3685 32.9745 38.2555C32.9546 38.1426 32.9149 38.043 32.8619 37.9632C32.8089 37.8835 32.7426 37.8171 32.6499 37.7772C32.5637 37.7307 32.4511 37.7108 32.3252 37.7108C32.1993 37.7108 32.0801 37.7374 31.9939 37.7839C31.9078 37.837 31.8349 37.9035 31.7819 37.9832C31.7289 38.0695 31.6892 38.1625 31.6693 38.2755C31.6494 38.3884 31.6362 38.508 31.6362 38.6275C31.6362 38.7737 31.6494 38.8999 31.6693 39.0194C31.6892 39.1324 31.7289 39.232 31.7819 39.3184C31.8349 39.3981 31.9012 39.4645 31.9939 39.5044C32.0801 39.5509 32.1927 39.5708 32.3252 39.5708C32.4577 39.5708 32.5704 39.5442 32.6565 39.4977C32.7426 39.4512 32.8155 39.3848 32.8685 39.2984C32.9215 39.2121 32.9613 39.1124 32.9811 38.9995C33.001 38.8866 33.0143 38.767 33.0143 38.6408L33.0076 38.6342Z" fill="#B4B4B4"/>
<path d="M36.2011 39.7701C36.2011 39.7701 36.2011 39.8299 36.1878 39.8564C36.1746 39.883 36.1613 39.9029 36.1414 39.9162C36.1216 39.9295 36.1017 39.9428 36.0752 39.9494C36.0487 39.9561 36.0222 39.9627 35.9957 39.9627H35.7638C35.7174 39.9627 35.6777 39.9627 35.6379 39.9494C35.6048 39.9428 35.5717 39.9229 35.5452 39.8963C35.5186 39.8697 35.4855 39.8365 35.459 39.7966C35.4325 39.7501 35.3994 39.697 35.3663 39.6306L34.7104 38.3884C34.6706 38.3153 34.6309 38.2356 34.5911 38.1492C34.5513 38.0629 34.5182 37.9832 34.4851 37.8968C34.4851 37.9965 34.4917 38.0961 34.4983 38.1891C34.4983 38.2887 34.4983 38.3884 34.4983 38.4947V39.883C34.4983 39.883 34.4983 39.9096 34.4851 39.9229C34.4785 39.9361 34.4652 39.9428 34.4453 39.9494C34.4255 39.9561 34.399 39.9627 34.3725 39.9694C34.3393 39.9694 34.2996 39.9694 34.2532 39.9694C34.2068 39.9694 34.1671 39.9694 34.1339 39.9694C34.1008 39.9694 34.0809 39.9627 34.0611 39.9494C34.0412 39.9428 34.0346 39.9295 34.0213 39.9229C34.0213 39.9096 34.0147 39.8963 34.0147 39.883V37.4983C34.0147 37.4318 34.0346 37.3853 34.0677 37.3521C34.1074 37.3189 34.1538 37.3056 34.2068 37.3056H34.4917C34.5447 37.3056 34.5845 37.3056 34.6242 37.3189C34.6574 37.3255 34.6905 37.3455 34.717 37.3654C34.7435 37.3853 34.77 37.4119 34.7965 37.4518C34.823 37.485 34.8495 37.5315 34.8694 37.5846L35.3861 38.5544C35.4126 38.6142 35.4458 38.674 35.4723 38.7272C35.4988 38.7869 35.5319 38.8401 35.5584 38.8999C35.5849 38.9597 35.6114 39.0128 35.6379 39.0659C35.6644 39.1191 35.6909 39.1789 35.7108 39.232C35.7108 39.139 35.7042 39.0394 35.7042 38.9331C35.7042 38.8268 35.7042 38.7338 35.7042 38.6342V37.392C35.7042 37.392 35.7042 37.3654 35.7174 37.3521C35.724 37.3388 35.7373 37.3322 35.7572 37.3255C35.777 37.3189 35.8035 37.3123 35.83 37.3056C35.8632 37.3056 35.9029 37.3056 35.9493 37.3056C35.9957 37.3056 36.0354 37.3056 36.0686 37.3056C36.1017 37.3056 36.1216 37.3123 36.1414 37.3255C36.1613 37.3322 36.1679 37.3455 36.1746 37.3521C36.1746 37.3654 36.1812 37.3787 36.1812 37.392V39.7767L36.2011 39.7701Z" fill="#B4B4B4"/>
<path d="M38.3477 39.7501C38.3477 39.79 38.3477 39.8232 38.3477 39.8498C38.3477 39.8764 38.3411 39.8963 38.3344 39.9162C38.3278 39.9361 38.3212 39.9428 38.3079 39.9494C38.3013 39.9561 38.2881 39.9627 38.2748 39.9627H36.9431C36.8967 39.9627 36.8636 39.9494 36.8305 39.9229C36.7973 39.8963 36.7841 39.8498 36.7841 39.79V37.4783C36.7841 37.4185 36.7973 37.372 36.8305 37.3455C36.8636 37.3189 36.8967 37.3056 36.9431 37.3056H38.2616C38.2616 37.3056 38.2814 37.3056 38.2947 37.3189C38.3013 37.3189 38.3146 37.3388 38.3212 37.3521C38.3278 37.372 38.3344 37.392 38.3344 37.4185C38.3344 37.4451 38.3344 37.4783 38.3344 37.5182C38.3344 37.558 38.3344 37.5912 38.3344 37.6178C38.3344 37.6444 38.3278 37.6643 38.3212 37.6842C38.3146 37.7042 38.3079 37.7108 38.2947 37.7175C38.2881 37.7241 38.2748 37.7308 38.2616 37.7308H37.3141V38.3751H38.1158C38.1158 38.3751 38.1423 38.3751 38.1489 38.3884C38.1622 38.395 38.1688 38.4083 38.1754 38.4216C38.1754 38.4349 38.1887 38.4615 38.1887 38.488C38.1887 38.5146 38.1887 38.5478 38.1887 38.5877C38.1887 38.6275 38.1887 38.6607 38.1887 38.6873C38.1887 38.7139 38.1821 38.7338 38.1754 38.7471C38.1688 38.7604 38.1622 38.7737 38.1489 38.7803C38.1423 38.7803 38.129 38.7936 38.1158 38.7936H37.3141V39.5442H38.2682C38.2682 39.5442 38.2947 39.5442 38.3013 39.5575C38.3146 39.5641 38.3212 39.5774 38.3278 39.5907C38.3278 39.604 38.3411 39.6306 38.3411 39.6571C38.3411 39.6837 38.3411 39.7169 38.3411 39.7568L38.3477 39.7501Z" fill="#B4B4B4"/>
</svg>
